<svg xmlns="http://www.w3.org/2000/svg" version="1.1" xmlns:xlink="http://www.w3.org/1999/xlink" xmlns:svgjs="http://svgjs.dev/svgjs" width="2000" height="2000" viewBox="0 0 2000 2000"><g transform="matrix(1,0,0,1,-0.28443113772425477,-0.28443113772459583)"><svg viewBox="0 0 334 334" data-background-color="#ffffff" preserveAspectRatio="xMidYMid meet" height="2000" width="2000" xmlns="http://www.w3.org/2000/svg" xmlns:xlink="http://www.w3.org/1999/xlink"><g id="tight-bounds" transform="matrix(1,0,0,1,0.04749999999998522,0.04750000000001364)"><svg viewBox="0 0 333.90454557049503 333.90454557049503" height="333.90454557049503" width="333.90454557049503"><g><svg></svg></g><g><svg viewBox="0 0 333.90454557049503 333.90454557049503" height="333.90454557049503" width="333.90454557049503"><g><path d="M0 166.952c0-92.205 74.747-166.952 166.952-166.952 92.205 0 166.952 74.747 166.953 166.952 0 92.205-74.747 166.952-166.953 166.953-92.205 0-166.952-74.747-166.952-166.953zM166.952 316.63c82.665 0 149.677-67.013 149.678-149.678 0-82.665-67.013-149.677-149.678-149.677-82.665 0-149.677 67.013-149.677 149.677 0 82.665 67.013 149.677 149.677 149.678z" data-fill-palette-color="tertiary" fill="#dc2626" stroke="transparent"></path><ellipse rx="160.27418187383762" ry="160.27418187383762" cx="166.95227278524752" cy="166.95227278524752" fill="#dc2626" stroke="transparent" stroke-width="0" fill-opacity="1" data-fill-palette-color="tertiary"></ellipse></g><g transform="matrix(1,0,0,1,76.63936004787817,71.17305217166896)"><svg viewBox="0 0 180.6258254747387 191.55844122715712" height="191.55844122715712" width="180.6258254747387"><g><svg viewBox="0 0 180.6258254747387 191.55844122715712" height="191.55844122715712" width="180.6258254747387"><g><svg viewBox="0 0 180.6258254747387 191.55844122715712" height="191.55844122715712" width="180.6258254747387"><g id="textblocktransform"><svg viewBox="0 0 180.6258254747387 191.55844122715712" height="191.55844122715712" width="180.6258254747387" id="textblock"><g><svg viewBox="0 0 180.6258254747387 191.55844122715712" height="191.55844122715712" width="180.6258254747387"><g transform="matrix(1,0,0,1,0,0)"><svg width="180.6258254747387" viewBox="0.7 -39.6 38 40.300000000000004" height="191.55844122715712" data-palette-color="#ffffff"><path d="M38.7-19.95L38.7-12.5 36.2-12.5 36.2-2.5Q34-1.25 29.78-0.28 25.55 0.7 20.65 0.7L20.65 0.7Q11.3 0.7 6-4.23 0.7-9.15 0.7-19.45L0.7-19.45Q0.7-30 5.98-34.8 11.25-39.6 21.05-39.6L21.05-39.6Q25.8-39.6 29.95-38.6 34.1-37.6 36.2-36.35L36.2-36.35 36.2-24.4 23.7-24.4 23.7-26.75Q23.7-28.85 22.83-29.78 21.95-30.7 20.05-30.7L20.05-30.7Q18.15-30.7 17.28-29.78 16.4-28.85 16.4-26.75L16.4-26.75 16.4-12.15Q16.4-10.05 17.28-9.13 18.15-8.2 20.05-8.2L20.05-8.2Q21.95-8.2 22.83-9.13 23.7-10.05 23.7-12.15L23.7-12.15 23.7-12.5 21-12.5 21-19.95 38.7-19.95Z" opacity="1" transform="matrix(1,0,0,1,0,0)" fill="#ffffff" class="wordmark-text-0" data-fill-palette-color="quaternary" id="text-0"></path></svg></g></svg></g></svg></g></svg></g><g></g></svg></g></svg></g></svg></g><defs></defs></svg><rect width="333.90454557049503" height="333.90454557049503" fill="none" stroke="none" visibility="hidden"></rect></g></svg></g></svg>